<svg width="455" height="140" viewBox="0 0 455 140" fill="none" xmlns="http://www.w3.org/2000/svg">
<path d="M2.71256 140C4.21066 140 5.42512 138.694 5.42512 137.083C5.42512 135.472 4.21066 134.167 2.71256 134.167C1.21445 134.167 0 135.472 0 137.083C0 138.694 1.21445 140 2.71256 140Z" fill="#BDBDBD"/>
<path d="M2.71256 106.458C4.21066 106.458 5.42512 105.152 5.42512 103.542C5.42512 101.931 4.21066 100.625 2.71256 100.625C1.21445 100.625 0 101.931 0 103.542C0 105.152 1.21445 106.458 2.71256 106.458Z" fill="#BDBDBD"/>
<path d="M2.71256 72.9166C4.21066 72.9166 5.42512 71.6107 5.42512 69.9999C5.42512 68.3891 4.21066 67.0833 2.71256 67.0833C1.21445 67.0833 0 68.3891 0 69.9999C0 71.6107 1.21445 72.9166 2.71256 72.9166Z" fill="#BDBDBD"/>
<path d="M2.71256 39.3751C4.21066 39.3751 5.42512 38.0692 5.42512 36.4584C5.42512 34.8476 4.21066 33.5417 2.71256 33.5417C1.21445 33.5417 0 34.8476 0 36.4584C0 38.0692 1.21445 39.3751 2.71256 39.3751Z" fill="#BDBDBD"/>
<path d="M2.71256 5.83333C4.21066 5.83333 5.42512 4.52749 5.42512 2.91666C5.42512 1.30583 4.21066 0 2.71256 0C1.21445 0 0 1.30583 0 2.91666C0 4.52749 1.21445 5.83333 2.71256 5.83333Z" fill="#BDBDBD"/>
<path d="M36.6198 140C38.1179 140 39.3323 138.694 39.3323 137.083C39.3323 135.472 38.1179 134.167 36.6198 134.167C35.1217 134.167 33.9072 135.472 33.9072 137.083C33.9072 138.694 35.1217 140 36.6198 140Z" fill="#BDBDBD"/>
<path d="M36.6198 106.458C38.1179 106.458 39.3323 105.152 39.3323 103.542C39.3323 101.931 38.1179 100.625 36.6198 100.625C35.1217 100.625 33.9072 101.931 33.9072 103.542C33.9072 105.152 35.1217 106.458 36.6198 106.458Z" fill="#BDBDBD"/>
<path d="M36.6198 72.9166C38.1179 72.9166 39.3323 71.6107 39.3323 69.9999C39.3323 68.3891 38.1179 67.0833 36.6198 67.0833C35.1217 67.0833 33.9072 68.3891 33.9072 69.9999C33.9072 71.6107 35.1217 72.9166 36.6198 72.9166Z" fill="#BDBDBD"/>
<path d="M36.6198 39.3751C38.1179 39.3751 39.3323 38.0692 39.3323 36.4584C39.3323 34.8476 38.1179 33.5417 36.6198 33.5417C35.1217 33.5417 33.9072 34.8476 33.9072 36.4584C33.9072 38.0692 35.1217 39.3751 36.6198 39.3751Z" fill="#BDBDBD"/>
<path d="M36.6198 5.83333C38.1179 5.83333 39.3323 4.52749 39.3323 2.91666C39.3323 1.30583 38.1179 0 36.6198 0C35.1217 0 33.9072 1.30583 33.9072 2.91666C33.9072 4.52749 35.1217 5.83333 36.6198 5.83333Z" fill="#BDBDBD"/>
<path d="M70.5265 140C72.0246 140 73.2391 138.694 73.2391 137.083C73.2391 135.472 72.0246 134.167 70.5265 134.167C69.0284 134.167 67.814 135.472 67.814 137.083C67.814 138.694 69.0284 140 70.5265 140Z" fill="#BDBDBD"/>
<path d="M70.5265 106.458C72.0246 106.458 73.2391 105.152 73.2391 103.542C73.2391 101.931 72.0246 100.625 70.5265 100.625C69.0284 100.625 67.814 101.931 67.814 103.542C67.814 105.152 69.0284 106.458 70.5265 106.458Z" fill="#BDBDBD"/>
<path d="M70.5265 72.9166C72.0246 72.9166 73.2391 71.6107 73.2391 69.9999C73.2391 68.3891 72.0246 67.0833 70.5265 67.0833C69.0284 67.0833 67.814 68.3891 67.814 69.9999C67.814 71.6107 69.0284 72.9166 70.5265 72.9166Z" fill="#BDBDBD"/>
<path d="M70.5265 39.3751C72.0246 39.3751 73.2391 38.0692 73.2391 36.4584C73.2391 34.8476 72.0246 33.5417 70.5265 33.5417C69.0284 33.5417 67.814 34.8476 67.814 36.4584C67.814 38.0692 69.0284 39.3751 70.5265 39.3751Z" fill="#BDBDBD"/>
<path d="M70.5265 5.83333C72.0246 5.83333 73.2391 4.52749 73.2391 2.91666C73.2391 1.30583 72.0246 0 70.5265 0C69.0284 0 67.814 1.30583 67.814 2.91666C67.814 4.52749 69.0284 5.83333 70.5265 5.83333Z" fill="#BDBDBD"/>
<path d="M104.433 140C105.931 140 107.146 138.694 107.146 137.083C107.146 135.472 105.931 134.167 104.433 134.167C102.935 134.167 101.721 135.472 101.721 137.083C101.721 138.694 102.935 140 104.433 140Z" fill="#BDBDBD"/>
<path d="M104.433 106.458C105.931 106.458 107.146 105.152 107.146 103.542C107.146 101.931 105.931 100.625 104.433 100.625C102.935 100.625 101.721 101.931 101.721 103.542C101.721 105.152 102.935 106.458 104.433 106.458Z" fill="#BDBDBD"/>
<path d="M104.433 72.9166C105.931 72.9166 107.146 71.6107 107.146 69.9999C107.146 68.3891 105.931 67.0833 104.433 67.0833C102.935 67.0833 101.721 68.3891 101.721 69.9999C101.721 71.6107 102.935 72.9166 104.433 72.9166Z" fill="#BDBDBD"/>
<path d="M104.433 39.3751C105.931 39.3751 107.146 38.0692 107.146 36.4584C107.146 34.8476 105.931 33.5417 104.433 33.5417C102.935 33.5417 101.721 34.8476 101.721 36.4584C101.721 38.0692 102.935 39.3751 104.433 39.3751Z" fill="#BDBDBD"/>
<path d="M104.433 5.83333C105.931 5.83333 107.146 4.52749 107.146 2.91666C107.146 1.30583 105.931 0 104.433 0C102.935 0 101.721 1.30583 101.721 2.91666C101.721 4.52749 102.935 5.83333 104.433 5.83333Z" fill="#BDBDBD"/>
<path d="M138.34 140C139.839 140 141.053 138.694 141.053 137.083C141.053 135.472 139.839 134.167 138.34 134.167C136.842 134.167 135.628 135.472 135.628 137.083C135.628 138.694 136.842 140 138.34 140Z" fill="#BDBDBD"/>
<path d="M138.34 106.458C139.839 106.458 141.053 105.152 141.053 103.542C141.053 101.931 139.839 100.625 138.34 100.625C136.842 100.625 135.628 101.931 135.628 103.542C135.628 105.152 136.842 106.458 138.34 106.458Z" fill="#BDBDBD"/>
<path d="M138.34 72.9166C139.839 72.9166 141.053 71.6107 141.053 69.9999C141.053 68.3891 139.839 67.0833 138.34 67.0833C136.842 67.0833 135.628 68.3891 135.628 69.9999C135.628 71.6107 136.842 72.9166 138.34 72.9166Z" fill="#BDBDBD"/>
<path d="M138.34 39.3751C139.839 39.3751 141.053 38.0692 141.053 36.4584C141.053 34.8476 139.839 33.5417 138.34 33.5417C136.842 33.5417 135.628 34.8476 135.628 36.4584C135.628 38.0692 136.842 39.3751 138.34 39.3751Z" fill="#BDBDBD"/>
<path d="M138.34 5.83333C139.839 5.83333 141.053 4.52749 141.053 2.91666C141.053 1.30583 139.839 0 138.34 0C136.842 0 135.628 1.30583 135.628 2.91666C135.628 4.52749 136.842 5.83333 138.34 5.83333Z" fill="#BDBDBD"/>
<path d="M172.248 140C173.746 140 174.96 138.694 174.96 137.083C174.96 135.472 173.746 134.167 172.248 134.167C170.75 134.167 169.535 135.472 169.535 137.083C169.535 138.694 170.75 140 172.248 140Z" fill="#BDBDBD"/>
<path d="M172.248 106.458C173.746 106.458 174.96 105.152 174.96 103.542C174.96 101.931 173.746 100.625 172.248 100.625C170.75 100.625 169.535 101.931 169.535 103.542C169.535 105.152 170.75 106.458 172.248 106.458Z" fill="#BDBDBD"/>
<path d="M172.248 72.9166C173.746 72.9166 174.96 71.6107 174.96 69.9999C174.96 68.3891 173.746 67.0833 172.248 67.0833C170.75 67.0833 169.535 68.3891 169.535 69.9999C169.535 71.6107 170.75 72.9166 172.248 72.9166Z" fill="#BDBDBD"/>
<path d="M172.248 39.3751C173.746 39.3751 174.96 38.0692 174.96 36.4584C174.96 34.8476 173.746 33.5417 172.248 33.5417C170.75 33.5417 169.535 34.8476 169.535 36.4584C169.535 38.0692 170.75 39.3751 172.248 39.3751Z" fill="#BDBDBD"/>
<path d="M172.248 5.83333C173.746 5.83333 174.96 4.52749 174.96 2.91666C174.96 1.30583 173.746 0 172.248 0C170.75 0 169.535 1.30583 169.535 2.91666C169.535 4.52749 170.75 5.83333 172.248 5.83333Z" fill="#BDBDBD"/>
<path d="M206.154 140C207.653 140 208.867 138.694 208.867 137.083C208.867 135.472 207.653 134.167 206.154 134.167C204.656 134.167 203.442 135.472 203.442 137.083C203.442 138.694 204.656 140 206.154 140Z" fill="#BDBDBD"/>
<path d="M206.154 106.458C207.653 106.458 208.867 105.152 208.867 103.542C208.867 101.931 207.653 100.625 206.154 100.625C204.656 100.625 203.442 101.931 203.442 103.542C203.442 105.152 204.656 106.458 206.154 106.458Z" fill="#BDBDBD"/>
<path d="M206.154 72.9166C207.653 72.9166 208.867 71.6107 208.867 69.9999C208.867 68.3891 207.653 67.0833 206.154 67.0833C204.656 67.0833 203.442 68.3891 203.442 69.9999C203.442 71.6107 204.656 72.9166 206.154 72.9166Z" fill="#BDBDBD"/>
<path d="M206.154 39.3751C207.653 39.3751 208.867 38.0692 208.867 36.4584C208.867 34.8476 207.653 33.5417 206.154 33.5417C204.656 33.5417 203.442 34.8476 203.442 36.4584C203.442 38.0692 204.656 39.3751 206.154 39.3751Z" fill="#BDBDBD"/>
<path d="M206.154 5.83333C207.653 5.83333 208.867 4.52749 208.867 2.91666C208.867 1.30583 207.653 0 206.154 0C204.656 0 203.442 1.30583 203.442 2.91666C203.442 4.52749 204.656 5.83333 206.154 5.83333Z" fill="#BDBDBD"/>
<path d="M240.062 140C241.56 140 242.774 138.694 242.774 137.083C242.774 135.472 241.56 134.167 240.062 134.167C238.564 134.167 237.349 135.472 237.349 137.083C237.349 138.694 238.564 140 240.062 140Z" fill="#BDBDBD"/>
<path d="M240.062 106.458C241.56 106.458 242.774 105.152 242.774 103.542C242.774 101.931 241.56 100.625 240.062 100.625C238.564 100.625 237.349 101.931 237.349 103.542C237.349 105.152 238.564 106.458 240.062 106.458Z" fill="#BDBDBD"/>
<path d="M240.062 72.9166C241.56 72.9166 242.774 71.6107 242.774 69.9999C242.774 68.3891 241.56 67.0833 240.062 67.0833C238.564 67.0833 237.349 68.3891 237.349 69.9999C237.349 71.6107 238.564 72.9166 240.062 72.9166Z" fill="#BDBDBD"/>
<path d="M240.062 39.3751C241.56 39.3751 242.774 38.0692 242.774 36.4584C242.774 34.8476 241.56 33.5417 240.062 33.5417C238.564 33.5417 237.349 34.8476 237.349 36.4584C237.349 38.0692 238.564 39.3751 240.062 39.3751Z" fill="#BDBDBD"/>
<path d="M240.062 5.83333C241.56 5.83333 242.774 4.52749 242.774 2.91666C242.774 1.30583 241.56 0 240.062 0C238.564 0 237.349 1.30583 237.349 2.91666C237.349 4.52749 238.564 5.83333 240.062 5.83333Z" fill="#BDBDBD"/>
<path d="M273.968 140C275.467 140 276.681 138.694 276.681 137.083C276.681 135.472 275.467 134.167 273.968 134.167C272.47 134.167 271.256 135.472 271.256 137.083C271.256 138.694 272.47 140 273.968 140Z" fill="#BDBDBD"/>
<path d="M273.968 106.458C275.467 106.458 276.681 105.152 276.681 103.542C276.681 101.931 275.467 100.625 273.968 100.625C272.47 100.625 271.256 101.931 271.256 103.542C271.256 105.152 272.47 106.458 273.968 106.458Z" fill="#BDBDBD"/>
<path d="M273.968 72.9166C275.467 72.9166 276.681 71.6107 276.681 69.9999C276.681 68.3891 275.467 67.0833 273.968 67.0833C272.47 67.0833 271.256 68.3891 271.256 69.9999C271.256 71.6107 272.47 72.9166 273.968 72.9166Z" fill="#BDBDBD"/>
<path d="M273.968 39.3751C275.467 39.3751 276.681 38.0692 276.681 36.4584C276.681 34.8476 275.467 33.5417 273.968 33.5417C272.47 33.5417 271.256 34.8476 271.256 36.4584C271.256 38.0692 272.47 39.3751 273.968 39.3751Z" fill="#BDBDBD"/>
<path d="M273.968 5.83333C275.467 5.83333 276.681 4.52749 276.681 2.91666C276.681 1.30583 275.467 0 273.968 0C272.47 0 271.256 1.30583 271.256 2.91666C271.256 4.52749 272.47 5.83333 273.968 5.83333Z" fill="#BDBDBD"/>
<path d="M307.876 140C309.374 140 310.588 138.694 310.588 137.083C310.588 135.472 309.374 134.167 307.876 134.167C306.378 134.167 305.163 135.472 305.163 137.083C305.163 138.694 306.378 140 307.876 140Z" fill="#BDBDBD"/>
<path d="M307.876 106.458C309.374 106.458 310.588 105.152 310.588 103.542C310.588 101.931 309.374 100.625 307.876 100.625C306.378 100.625 305.163 101.931 305.163 103.542C305.163 105.152 306.378 106.458 307.876 106.458Z" fill="#BDBDBD"/>
<path d="M307.876 72.9166C309.374 72.9166 310.588 71.6107 310.588 69.9999C310.588 68.3891 309.374 67.0833 307.876 67.0833C306.378 67.0833 305.163 68.3891 305.163 69.9999C305.163 71.6107 306.378 72.9166 307.876 72.9166Z" fill="#BDBDBD"/>
<path d="M307.876 39.3751C309.374 39.3751 310.588 38.0692 310.588 36.4584C310.588 34.8476 309.374 33.5417 307.876 33.5417C306.378 33.5417 305.163 34.8476 305.163 36.4584C305.163 38.0692 306.378 39.3751 307.876 39.3751Z" fill="#BDBDBD"/>
<path d="M307.876 5.83333C309.374 5.83333 310.588 4.52749 310.588 2.91666C310.588 1.30583 309.374 0 307.876 0C306.378 0 305.163 1.30583 305.163 2.91666C305.163 4.52749 306.378 5.83333 307.876 5.83333Z" fill="#BDBDBD"/>
<path d="M341.782 140C343.28 140 344.495 138.694 344.495 137.083C344.495 135.472 343.28 134.167 341.782 134.167C340.284 134.167 339.07 135.472 339.07 137.083C339.07 138.694 340.284 140 341.782 140Z" fill="#BDBDBD"/>
<path d="M341.782 106.458C343.28 106.458 344.495 105.152 344.495 103.542C344.495 101.931 343.28 100.625 341.782 100.625C340.284 100.625 339.07 101.931 339.07 103.542C339.07 105.152 340.284 106.458 341.782 106.458Z" fill="#BDBDBD"/>
<path d="M341.782 72.9166C343.28 72.9166 344.495 71.6107 344.495 69.9999C344.495 68.3891 343.28 67.0833 341.782 67.0833C340.284 67.0833 339.07 68.3891 339.07 69.9999C339.07 71.6107 340.284 72.9166 341.782 72.9166Z" fill="#BDBDBD"/>
<path d="M341.782 39.3751C343.28 39.3751 344.495 38.0692 344.495 36.4584C344.495 34.8476 343.28 33.5417 341.782 33.5417C340.284 33.5417 339.07 34.8476 339.07 36.4584C339.07 38.0692 340.284 39.3751 341.782 39.3751Z" fill="#BDBDBD"/>
<path d="M341.782 5.83333C343.28 5.83333 344.495 4.52749 344.495 2.91666C344.495 1.30583 343.28 0 341.782 0C340.284 0 339.07 1.30583 339.07 2.91666C339.07 4.52749 340.284 5.83333 341.782 5.83333Z" fill="#BDBDBD"/>
<path d="M375.689 140C377.187 140 378.402 138.694 378.402 137.083C378.402 135.472 377.187 134.167 375.689 134.167C374.191 134.167 372.977 135.472 372.977 137.083C372.977 138.694 374.191 140 375.689 140Z" fill="#BDBDBD"/>
<path d="M375.689 106.458C377.187 106.458 378.402 105.152 378.402 103.542C378.402 101.931 377.187 100.625 375.689 100.625C374.191 100.625 372.977 101.931 372.977 103.542C372.977 105.152 374.191 106.458 375.689 106.458Z" fill="#BDBDBD"/>
<path d="M375.689 72.9166C377.187 72.9166 378.402 71.6107 378.402 69.9999C378.402 68.3891 377.187 67.0833 375.689 67.0833C374.191 67.0833 372.977 68.3891 372.977 69.9999C372.977 71.6107 374.191 72.9166 375.689 72.9166Z" fill="#BDBDBD"/>
<path d="M375.689 39.3751C377.187 39.3751 378.402 38.0692 378.402 36.4584C378.402 34.8476 377.187 33.5417 375.689 33.5417C374.191 33.5417 372.977 34.8476 372.977 36.4584C372.977 38.0692 374.191 39.3751 375.689 39.3751Z" fill="#BDBDBD"/>
<path d="M375.689 5.83333C377.187 5.83333 378.402 4.52749 378.402 2.91666C378.402 1.30583 377.187 0 375.689 0C374.191 0 372.977 1.30583 372.977 2.91666C372.977 4.52749 374.191 5.83333 375.689 5.83333Z" fill="#BDBDBD"/>
<path d="M409.596 140C411.094 140 412.309 138.694 412.309 137.083C412.309 135.472 411.094 134.167 409.596 134.167C408.098 134.167 406.884 135.472 406.884 137.083C406.884 138.694 408.098 140 409.596 140Z" fill="#BDBDBD"/>
<path d="M409.596 106.458C411.094 106.458 412.309 105.152 412.309 103.542C412.309 101.931 411.094 100.625 409.596 100.625C408.098 100.625 406.884 101.931 406.884 103.542C406.884 105.152 408.098 106.458 409.596 106.458Z" fill="#BDBDBD"/>
<path d="M409.596 72.9166C411.094 72.9166 412.309 71.6107 412.309 69.9999C412.309 68.3891 411.094 67.0833 409.596 67.0833C408.098 67.0833 406.884 68.3891 406.884 69.9999C406.884 71.6107 408.098 72.9166 409.596 72.9166Z" fill="#BDBDBD"/>
<path d="M409.596 39.3751C411.094 39.3751 412.309 38.0692 412.309 36.4584C412.309 34.8476 411.094 33.5417 409.596 33.5417C408.098 33.5417 406.884 34.8476 406.884 36.4584C406.884 38.0692 408.098 39.3751 409.596 39.3751Z" fill="#BDBDBD"/>
<path d="M409.596 5.83333C411.094 5.83333 412.309 4.52749 412.309 2.91666C412.309 1.30583 411.094 0 409.596 0C408.098 0 406.884 1.30583 406.884 2.91666C406.884 4.52749 408.098 5.83333 409.596 5.83333Z" fill="#BDBDBD"/>
<path d="M443.504 140C445.002 140 446.216 138.694 446.216 137.083C446.216 135.472 445.002 134.167 443.504 134.167C442.005 134.167 440.791 135.472 440.791 137.083C440.791 138.694 442.005 140 443.504 140Z" fill="#BDBDBD"/>
<path d="M443.504 106.458C445.002 106.458 446.216 105.152 446.216 103.542C446.216 101.931 445.002 100.625 443.504 100.625C442.005 100.625 440.791 101.931 440.791 103.542C440.791 105.152 442.005 106.458 443.504 106.458Z" fill="#BDBDBD"/>
<path d="M443.504 72.9166C445.002 72.9166 446.216 71.6107 446.216 69.9999C446.216 68.3891 445.002 67.0833 443.504 67.0833C442.005 67.0833 440.791 68.3891 440.791 69.9999C440.791 71.6107 442.005 72.9166 443.504 72.9166Z" fill="#BDBDBD"/>
<path d="M443.504 39.3751C445.002 39.3751 446.216 38.0692 446.216 36.4584C446.216 34.8476 445.002 33.5417 443.504 33.5417C442.005 33.5417 440.791 34.8476 440.791 36.4584C440.791 38.0692 442.005 39.3751 443.504 39.3751Z" fill="#BDBDBD"/>
<path d="M443.504 5.83333C445.002 5.83333 446.216 4.52749 446.216 2.91666C446.216 1.30583 445.002 0 443.504 0C442.005 0 440.791 1.30583 440.791 2.91666C440.791 4.52749 442.005 5.83333 443.504 5.83333Z" fill="#BDBDBD"/>
</svg>
