<?xml version="1.0" encoding="UTF-8"?>
<svg id="Layer_2" data-name="Layer 2" xmlns="http://www.w3.org/2000/svg" viewBox="0 0 191.42 172.32">
  <defs>
    <style>
      .cls-1 {
        fill: #28ade3;
      }
    </style>
  </defs>
  <g id="Layer_1-2" data-name="Layer 1">
    <g>
      <path class="cls-1" d="m121.06,2.26l-.12.05c-4.01,1.87-7.43,4.81-9.91,8.51l-15.33,26.54-15.38-26.64-.06-.1-.02-.02c-2.45-3.59-5.83-6.45-9.75-8.28-.03-.01-.06-.03-.09-.04l-.29.65.24-.67c-7.21-3.34-15.63-2.96-22.51,1.01-6.91,4-11.45,11.13-12.14,19.09v.05c-.41,4.7.56,9.38,2.79,13.54l14.86,25.74h-28.9c-5.04,0-9.88,1.52-13.99,4.39-6.56,4.58-10.47,12.09-10.47,20.07s3.92,15.5,10.48,20.07c4.12,2.87,8.95,4.39,13.98,4.39h28.95l-15.31,26.53-.02.04c-1.93,3.96-2.75,8.37-2.36,12.79,0,.03,0,.06,0,.07.73,7.92,5.26,15.02,12.14,18.99,6.86,3.96,15.23,4.35,22.43,1.05h.03s.16-.09.16-.09c4.24-1.99,7.8-5.13,10.3-9.1l14.94-25.86,14.81,25.66c2.5,4.07,6.11,7.29,10.38,9.28l.18.1h.03c7.21,3.31,15.59,2.92,22.45-1.04,6.88-3.97,11.42-11.07,12.13-18.99h0s0-.07,0-.12c.38-4.32-.42-8.68-2.29-12.6l-.03-.07-15.38-26.64h28.08v-.02c.29.01.58.02.88.02,5.04,0,9.87-1.52,13.98-4.39,6.56-4.58,10.48-12.08,10.48-20.07s-3.92-15.5-10.48-20.07c-4.11-2.87-8.94-4.39-13.98-4.39h-28.9l13.65-23.64.14-.27c.07-.1.13-.2.2-.31l.94-1.63.02-.04c2.17-4.13,3.1-8.76,2.7-13.4v-.15s-.02-.03-.02-.03c-.73-7.91-5.26-14.99-12.13-18.96-6.89-3.98-15.31-4.35-22.5-1.01Zm-77.24,31.59c-.11-.18-.21-.37-.31-.56l-.04-.08c-4.73-8.96-1.55-19.94,7.22-25.01,8.4-4.85,19.3-2.41,24.8,5.53l16.93,29.32-19.27,33.37,16.87,9.74-12,6.93-34.2-59.24Zm-19.37,71.09c-10.35,0-18.78-8.42-18.78-18.78s8.42-18.78,18.78-18.78h32.18l19.32,33.46,16.91-9.76v13.86H24.46Zm51.89,52.31c-.13.22-.26.44-.41.69-5.41,8.52-16.49,11.24-25.23,6.19-8.44-4.87-11.76-15.56-7.56-24.34l16.84-29.16h38.57v-19.54l12,6.93-34.2,59.24Zm71.25-18.78c.25.44.48.88.69,1.31l.03.06c4.15,8.77.82,19.43-7.59,24.28-8.8,5.08-19.91,2.32-25.29-6.29l-.03-.04-16.41-28.43,19.31-33.44-16.91-9.76,12-6.93,34.2,59.24Zm19.36-71.09c10.35,0,18.78,8.42,18.78,18.78s-8.42,18.78-18.78,18.78h-32.24l-19.3-33.43-16.87,9.74v-13.86h68.41Zm-26.23-59.19c8.76,5.06,11.94,16.03,7.23,24.98l-16.47,28.52h-38.62v19.54l-12-6.93L115.08,15.07c.22-.39.48-.8.79-1.25,5.51-8.02,16.43-10.49,24.86-5.62Z"/>
      <circle class="cls-1" cx="34.78" cy="121.77" r="5.47" transform="translate(-33.79 15.3) rotate(-16.85)"/>
      <circle class="cls-1" cx="156.5" cy="121.77" r="5.47" transform="translate(-15.89 219.76) rotate(-67.5)"/>
      <circle class="cls-1" cx="34.78" cy="51.33" r="5.47"/>
      <circle class="cls-1" cx="156.5" cy="51.33" r="5.47"/>
      <path class="cls-1" d="m95.72,24.83c3.02,0,5.47-2.45,5.47-5.47s-2.45-5.47-5.47-5.47-5.47,2.45-5.47,5.47,2.45,5.47,5.47,5.47Z"/>
      <circle class="cls-1" cx="95.72" cy="155.46" r="5.47"/>
    </g>
  </g>
</svg>